Coordinates
version=1
nRows=14
nColumns=46
inDegrees=yes

Units are S.I. units (second, meters, Newtons, ...)
Angles are in degrees.

endheader
time	pelvis_tilt	pelvis_list	pelvis_rotation	pelvis_tx	pelvis_ty	pelvis_tz	bb_angle	bb_tx	bb_ty	bb_tz	hip_flexion_r	hip_adduction_r	hip_rotation_r	knee_angle_r	knee_angle_r_beta	ankle_angle_r	subtalar_angle_r	mtp_angle_r	crank_angle_r	hip_flexion_l	hip_adduction_l	hip_rotation_l	knee_angle_l	knee_angle_l_beta	ankle_angle_l	subtalar_angle_l	mtp_angle_l	crank_angle_l	lumbar_extension	lumbar_bending	lumbar_rotation	arm_flex_r	arm_add_r	arm_rot_r	elbow_flex_r	pro_sup_r	wrist_flex_r	wrist_dev_r	arm_flex_l	arm_add_l	arm_rot_l	elbow_flex_l	pro_sup_l	wrist_flex_l	wrist_dev_l
      5.00500000	    -38.63527312	     -7.64401614	    -15.92866785	      0.34976538	      1.10694420	     -0.22412034	      0.00000000	      0.50000000	      0.00000000	      0.25000000	     85.57282239	      8.85688998	     -3.15562219	     83.97477232	      1.46563627	      5.45092718	      2.03135533	      0.00000000	      0.00000000	     43.43101424	    -17.82193313	     -4.64682755	     37.87485391	      0.66104090	    -39.40762119	    -18.95285662	      0.00000000	      0.00000000	    -60.19049413	      0.61935954	      3.24290614	     65.13827738	    -12.93167254	     34.25857458	    100.52976773	     54.38268372	      0.00000000	      0.00000000	     26.25915919	    -22.92502390	    -12.05140274	    125.87678056	     53.76640210	      0.00000000	      0.00000000
      5.01000000	    -38.90933404	     -7.18045170	    -15.82207345	      0.34961511	      1.10760856	     -0.22374576	      0.00000000	      0.50000000	      0.00000000	      0.25000000	     84.12061908	      8.79790302	     -2.87600110	     80.91968115	      1.41231487	      7.09682711	      1.86798926	      0.00000000	      0.00000000	     44.63659790	    -17.24103398	     -3.58378866	     40.15286266	      0.70079966	    -39.41313103	    -19.39843120	      0.00000000	      0.00000000	    -59.93027407	      0.21504126	      3.83333189	     63.88574734	    -13.60266237	     32.95588534	    101.93467241	     54.43955688	      0.00000000	      0.00000000	     27.75659854	    -22.47143934	    -10.07772527	    124.92478036	     53.95919209	      0.00000000	      0.00000000
      5.01500000	    -38.93458504	     -6.57695405	    -15.61789293	      0.34972922	      1.10835112	     -0.22348273	      0.00000000	      0.50000000	      0.00000000	      0.25000000	     82.38402341	      8.55457804	     -2.53853282	     77.73740265	      1.35677363	      8.35965541	      1.33323985	      0.00000000	      0.00000000	     45.63120370	    -16.50274983	     -2.83294119	     42.53129818	      0.74231119	    -39.38694646	    -19.84633956	      0.00000000	      0.00000000	    -59.86686599	     -0.19019464	      3.44750781	     63.53885843	    -13.63338256	     32.78695438	    102.11919564	     54.45107983	      0.00000000	      0.00000000	     28.03697842	    -22.65447364	     -9.91908471	    124.82529562	     53.96435701	      0.00000000	      0.00000000
      5.02000000	    -38.82583013	     -5.69576076	    -15.26856945	      0.35016213	      1.10893929	     -0.22347738	      0.00000000	      0.50000000	      0.00000000	      0.25000000	     80.54522969	      8.02744529	     -2.02089151	     74.42586706	      1.29897643	      8.99818977	      0.84956661	      0.00000000	      0.00000000	     46.49748523	    -15.41124037	     -2.28444116	     44.89453824	      0.78355751	    -39.31044020	    -20.06108284	      0.00000000	      0.00000000	    -59.82909784	     -0.67506234	      2.76519975	     63.22792542	    -13.78385699	     32.59997046	    102.26369122	     54.45610498	      0.00000000	      0.00000000	     28.16526434	    -22.70811235	     -9.76234737	    124.66845742	     53.95993450	      0.00000000	      0.00000000
      5.02500000	    -39.22583308	     -5.23298637	    -14.78516960	      0.34991990	      1.10820839	     -0.22353734	      0.00000000	      0.50000000	      0.00000000	      0.25000000	     79.18944528	      7.42235294	     -2.30251764	     71.00014751	      1.23918634	      9.11619325	     -0.13903883	      0.00000000	      0.00000000	     48.30958190	    -14.65012158	     -1.25251695	     47.92240152	      0.83640369	    -39.17677149	    -20.84919804	      0.00000000	      0.00000000	    -59.26135086	     -1.05867951	      4.46953987	     60.71631574	    -16.05974521	     29.73439513	    105.43430738	     54.60449104	      0.00000000	      0.00000000	     31.03839374	    -22.04843912	     -5.95742395	    122.50474504	     54.14745259	      0.00000000	      0.00000000
      5.03000000	    -39.14704835	     -4.35461767	    -14.51444898	      0.35014324	      1.10819619	     -0.22337480	      0.00000000	      0.50000000	      0.00000000	      0.25000000	     77.40365869	      6.93859543	     -1.88848393	     67.50623051	      1.17820599	      9.31721564	     -0.00422235	      0.00000000	      0.00000000	     49.39512203	    -13.66837171	     -0.95102837	     50.66227314	      0.88422347	    -38.92278337	    -21.25416082	      0.00000000	      0.00000000	    -59.16052453	     -1.63622564	      3.97203101	     60.39477530	    -16.40743227	     29.44446793	    105.67362015	     54.60603939	      0.00000000	      0.00000000	     31.43664966	    -22.39710821	     -5.75720148	    122.31816030	     54.14220553	      0.00000000	      0.00000000
      5.03500000	    -39.11271340	     -3.45366525	    -14.01236099	      0.35057332	      1.10769861	     -0.22347558	      0.00000000	      0.50000000	      0.00000000	      0.25000000	     75.68278348	      6.19897126	     -1.53788034	     64.10418937	      1.11882917	      9.21356940	     -0.14959999	      0.00000000	      0.00000000	     50.62771586	    -12.54397995	     -0.61586205	     53.44485127	      0.93278862	    -38.55132951	    -21.46297600	      0.00000000	      0.00000000	    -58.97888502	     -2.06980056	      3.41266142	     59.83356292	    -16.97607827	     29.02515370	    106.17567173	     54.63733349	      0.00000000	      0.00000000	     31.93376330	    -22.88930557	     -5.15762807	    121.99818072	     54.16621430	      0.00000000	      0.00000000
      5.04000000	    -39.06267562	     -2.30782988	    -13.51947099	      0.35090332	      1.10691664	     -0.22352317	      0.00000000	      0.50000000	      0.00000000	      0.25000000	     74.04869903	      5.31327504	     -1.01280238	     60.77682148	      1.06075564	      8.83138456	     -0.39133465	      0.00000000	      0.00000000	     51.83698230	    -11.25057544	     -0.48213859	     56.13641520	      0.97976528	    -37.98761386	    -21.35537490	      0.00000000	      0.00000000	    -58.72260311	     -2.98098535	      4.03556690	     57.98908100	    -19.42190296	     27.21508207	    108.71231267	     54.79027630	      0.00000000	      0.00000000	     34.21411494	    -22.50330293	     -1.47958606	    120.09787436	     54.32413037	      0.00000000	      0.00000000
      5.04500000	    -39.08544809	     -1.44488502	    -12.84846158	      0.35178272	      1.10596136	     -0.22315755	      0.00000000	      0.50000000	      0.00000000	      0.25000000	     72.38407221	      4.33501284	     -0.89003188	     57.45213742	      1.00272896	      8.31012234	     -0.26455586	      0.00000000	      0.00000000	     53.13565550	    -10.19129549	     -0.22734382	     58.81424588	      1.02650224	    -37.31421224	    -20.99904035	      0.00000000	      0.00000000	    -58.52852088	     -3.52160158	      4.02259851	     56.60130039	    -20.87830192	     26.12150165	    110.28731879	     54.86130662	      0.00000000	      0.00000000	     35.46171898	    -22.35014606	      0.32187128	    119.24073835	     54.40097141	      0.00000000	      0.00000000
      5.05000000	    -38.96367529	     -0.37507159	    -12.23355629	      0.35227952	      1.10489863	     -0.22327720	      0.00000000	      0.50000000	      0.00000000	      0.25000000	     70.77858551	      3.29505531	     -0.30740409	     54.32122143	      0.94808417	      7.64991772	      0.38987706	      0.00000000	      0.00000000	     54.30256566	     -8.93335391	     -0.21124400	     61.43827599	      1.07230020	    -36.70156389	    -20.94172948	      0.00000000	      0.00000000	    -58.38820028	     -4.00233726	      3.01306163	     56.20157227	    -21.22357733	     26.05487273	    110.43705237	     54.87988152	      0.00000000	      0.00000000	     35.68365941	    -22.65336202	      0.52091339	    119.08565183	     54.39696394	      0.00000000	      0.00000000
      5.05500000	    -38.89815277	      0.44047973	    -11.54125145	      0.35264487	      1.10358684	     -0.22316656	      0.00000000	      0.50000000	      0.00000000	      0.25000000	     69.22263408	      2.31866121	     -0.04146916	     51.30381613	      0.89542051	      6.86785315	      0.88989264	      0.00000000	      0.00000000	     55.62769841	     -7.92782366	     -0.07383806	     64.19714839	      1.12045161	    -35.76774857	    -20.23923198	      0.00000000	      0.00000000	    -58.20779292	     -4.28877767	      2.18763191	     55.55781361	    -21.72943265	     25.90787152	    110.94960854	     54.94520608	      0.00000000	      0.00000000	     36.09172119	    -23.40724164	      1.20753642	    118.92654173	     54.44926184	      0.00000000	      0.00000000
      5.06000000	    -38.83889275	      1.46400564	    -10.91920302	      0.35271084	      1.10189922	     -0.22322177	      0.00000000	      0.50000000	      0.00000000	      0.25000000	     67.89436042	      1.26973026	      0.50315861	     48.54074327	      0.84719579	      5.63216348	      1.29018679	      0.00000000	      0.00000000	     56.96167872	     -6.79365653	     -0.16971174	     66.93938720	      1.16831271	    -34.64870723	    -19.77037920	      0.00000000	      0.00000000	    -57.99318691	     -4.80036395	      1.43613063	     54.72738108	    -22.47350953	     25.53647187	    111.70118781	     55.01710475	      0.00000000	      0.00000000	     36.61987968	    -23.89974816	      2.47777915	    118.67979615	     54.55544053	      0.00000000	      0.00000000
      5.06500000	    -38.68330743	      2.46672874	    -10.20204252	      0.35296816	      1.10025388	     -0.22340257	      0.00000000	      0.50000000	      0.00000000	      0.25000000	     66.47997101	      0.07447485	      0.85502405	     45.87263750	      0.80062856	      4.48052891	      1.77594634	      0.00000000	      0.00000000	     58.17455453	     -5.60978547	     -0.40317665	     69.56176319	      1.21408180	    -33.81541828	    -19.70264655	      0.00000000	      0.00000000	    -57.80155500	     -5.19565886	      0.38830870	     54.02436003	    -22.90626998	     25.29357993	    111.98835943	     55.03657706	      0.00000000	      0.00000000	     37.02023451	    -23.90022642	      3.01642083	    118.43399815	     54.57238024	      0.00000000	      0.00000000
      5.07000000	    -38.47855832	      3.48901165	     -9.42102758	      0.35325572	      1.09839185	     -0.22366471	      0.00000000	      0.50000000	      0.00000000	      0.25000000	     65.05613907	     -1.18215984	      1.25356538	     43.34709508	      0.75654953	      3.04822244	      2.40175030	      0.00000000	      0.00000000	     59.41430708	     -4.47233712	     -0.82350897	     72.25589793	      1.26110332	    -32.88979671	    -19.81174466	      0.00000000	      0.00000000	    -57.65202877	     -5.52177139	     -0.76327181	     53.50326734	    -23.19622900	     25.18014776	    112.08777439	     55.04469309	      0.00000000	      0.00000000	     37.19453283	    -23.87422967	      3.31440252	    118.26201031	     54.57723228	      0.00000000	      0.00000000
